<svg xmlns="http://www.w3.org/2000/svg" width="15" height="19.496" viewBox="0 0 15 19.496"><path d="M7.969.254C3.961.254,0,2.926,0,7.25,0,10,1.547,11.563,2.484,11.563c.387,0,.609-1.078.609-1.383,0-.363-.926-1.137-.926-2.648A5.279,5.279,0,0,1,7.652,2.164c2.66,0,4.629,1.512,4.629,4.289,0,2.074-.832,5.965-3.527,5.965a1.734,1.734,0,0,1-1.8-1.711C6.949,9.23,7.98,7.8,7.98,6.277c0-2.586-3.668-2.117-3.668,1.008a4.589,4.589,0,0,0,.375,1.98c-.539,2.32-1.641,5.777-1.641,8.168,0,.738.105,1.465.176,2.2.133.148.066.133.27.059,1.969-2.7,1.9-3.223,2.789-6.75a3.168,3.168,0,0,0,2.707,1.406c4.148,0,6.012-4.043,6.012-7.687C15,2.785,11.648.254,7.969.254Z" transform="translate(0 -0.254)"/></svg>